<?xml version="1.0" encoding="utf-8"?>
<!-- Generator: Adobe Illustrator 16.0.3, SVG Export Plug-In . SVG Version: 6.00 Build 0)  -->
<!DOCTYPE svg PUBLIC "-//W3C//DTD SVG 1.1//EN" "http://www.w3.org/Graphics/SVG/1.1/DTD/svg11.dtd">
<svg version="1.1" id="Layer_1" xmlns="http://www.w3.org/2000/svg" xmlns:xlink="http://www.w3.org/1999/xlink" x="0px" y="0px"
	 width="250px" height="90px" viewBox="0 0 250 90" enable-background="new 0 0 250 90" xml:space="preserve">
<path fill="#800093" d="M30.647,73.797c-6.48,0-9.636-2.642-9.636-8.082V27.467c0-0.99,0.801-1.192,1.793-1.192
	s1.79,0.203,1.79,1.192v38.249c0,2.002,0,4.5,6.053,4.5c6.042,0,6.042-2.498,6.042-4.5V52.291c0-0.99,0.802-1.192,1.794-1.192
	c0.991,0,1.788,0.202,1.788,1.192v13.425C40.271,71.155,37.125,73.797,30.647,73.797z"/>
<path fill="#800093" d="M30.951,84c-4.054,0-7.592-0.603-10.512-1.772c-0.918-0.365-0.764-1.417-0.393-2.334
	c0.371-0.922,0.809-1.36,1.729-0.994c2.493,1.006,5.581,1.506,9.175,1.506c14.172,0,17.149-7.985,17.149-14.689V44.474
	c0-0.102-0.08-0.191-0.191-0.191H32.669c-0.112,0-0.202,0.09-0.202,0.191v2.883c0,0.992-0.809,1.199-1.797,1.199
	s-1.786-0.208-1.786-1.199v-3.873c0-2.087,0.697-2.79,2.785-2.79h17.239c2.077,0,2.773,0.702,2.773,2.79v22.231
	C51.682,71.21,49.66,84,30.951,84z"/>
<path fill="#800093" d="M66.068,47.106c-0.988,0-1.797-0.203-1.797-1.192V11.337c0-2.087,1.695-3.791,3.773-3.791h4.065
	c0.988,0,1.195,0.81,1.195,1.8s-0.207,1.789-1.195,1.789h-4.065c-0.102,0-0.191,0.09-0.191,0.203v34.577
	C67.854,46.904,67.057,47.106,66.068,47.106z"/>
<path fill="#800093" d="M75.295,82.45h-7.25c-2.078,0-3.773-1.707-3.773-3.799V56.829c0-0.989,0.809-1.191,1.797-1.191
	s1.785,0.203,1.785,1.191v21.822c0,0.118,0.09,0.208,0.191,0.208h7.25c0.105,0,0.192-0.09,0.192-0.208V18.514
	c0-0.99,0.801-1.192,1.79-1.192s1.787,0.203,1.787,1.192v60.137C79.063,80.743,77.377,82.45,75.295,82.45z"/>
<path fill="#800093" d="M218.696,84c-19.34,0-21.428-12.79-21.428-18.284v-3.571c0-0.99,0.809-1.197,1.797-1.197
	s1.797,0.208,1.797,1.197v3.571c0,2.502,0.48,6.12,2.793,9.094c2.889,3.711,7.943,5.595,15.041,5.595
	c14.645,0,17.721-7.985,17.721-14.689V24.284c0-5.489-2.313-14.701-17.834-14.701c-15.428,0-17.721,9.212-17.721,14.701v27.906
	c0,0.991-0.809,1.193-1.797,1.193s-1.797-0.203-1.797-1.193V24.284c0-5.5,2.088-18.284,21.314-18.284
	c8.213,0,14.195,2.346,17.813,6.979c2.986,3.813,3.605,8.246,3.605,11.304v41.432C240,71.21,237.922,84,218.696,84z"/>
<path fill="#800093" d="M11.792,66.908c-0.988,0-1.792-0.201-1.792-1.192V24.284c0-6.827,2.693-18.28,20.744-18.28
	c18.899,0,20.938,12.78,20.938,18.28v6.693c0,2.085-0.696,2.79-2.773,2.79h-9.243c-2.077,0-2.773-0.704-2.773-2.79v-6.693
	c0-0.99,0.797-1.198,1.785-1.198s1.797,0.208,1.797,1.198v5.691c0,0.112,0.079,0.202,0.191,0.202h7.243
	c0.112,0,0.191-0.09,0.191-0.202v-5.691c0-6.704-3.01-14.698-17.355-14.698c-11.387,0-17.167,4.946-17.167,14.698v41.432
	C13.577,66.707,12.78,66.908,11.792,66.908z"/>
<path fill="#800093" d="M218.635,73.797c-6.723,0-10.137-2.722-10.137-8.082V24.284c0-5.365,3.414-8.087,10.137-8.087
	c6.73,0,10.145,2.722,10.145,8.087v41.432C228.78,71.076,225.366,73.797,218.635,73.797z M218.635,19.784
	c-6.555,0-6.555,2.71-6.555,4.5v41.432c0,1.794,0,4.5,6.555,4.5c6.574,0,6.574-2.706,6.574-4.5V24.284
	C225.209,22.495,225.209,19.784,218.635,19.784z"/>
<path fill="#800093" d="M180.098,12.372c-3.494-3.198-8.48-4.826-14.814-4.826h-16.6c-2.088,0-2.785,0.709-2.785,2.801v60.118
	c0,0.992,0.787,1.195,1.775,1.195s1.797-0.203,1.797-1.195V11.337c0-0.112,0.09-0.203,0.201-0.203h15.611
	c5.412,0,9.59,1.305,12.398,3.885c2.65,2.437,4.244,6.776,4.244,11.606V43.45c0,4.657-1.414,8.313-4.199,10.859
	c-2.766,2.543-6.963,3.831-12.443,3.831h-6.975c-0.992,0-1.201,0.209-1.201,1.202v19.309c0,0.113-0.09,0.208-0.203,0.208h-2.447
	c-0.988,0-1.197,0.804-1.197,1.793c0,0.99,0.209,1.797,1.197,1.797h3.449c2.082,0,2.795-0.711,2.795-2.798v-17.92h4.582
	c6.4,0,11.41-1.613,14.869-4.773c3.549-3.257,5.346-7.802,5.346-13.509V26.626C185.499,20.718,183.543,15.522,180.098,12.372z"/>
<path fill="#800093" d="M130.12,35.363c0,0-4.969,0-5.451,0c-0.49,0-0.838-0.585-0.838-1.89s0.131-1.699,0.838-1.699
	c0.701,0,4.453,0,4.453,0c0.111,0,0.201-0.09,0.201-0.203v-7.289c0-5.489-2.246-14.698-17.266-14.698
	c-3.739,0-6.938,0.57-9.489,1.695c-0.904,0.394-1.562-0.213-1.964-1.125c-0.394-0.9-0.383-1.765,0.527-2.16
	c3.01-1.327,6.682-1.992,10.927-1.992c18.817,0,20.838,12.78,20.838,18.28v8.278C132.895,34.654,132.198,35.363,130.12,35.363z"/>
<path fill="#800093" d="M112.057,73.809c-6.479,0-9.626-2.648-9.626-8.093v-7.294c0-0.107-0.088-0.198-0.2-0.198h-4.459
	c-0.988,0-1.19-0.804-1.19-1.793c0-0.99,0.202-1.795,1.19-1.795h5.449c2.087,0,2.787,0.704,2.787,2.791v8.29
	c0,2.002,0,4.5,6.049,4.5c6.053,0,6.053-2.498,6.053-4.5V60.93c0-3.786-4.5-6.569-9.703-9.791
	c-7.659-4.742-17.194-10.646-17.194-23.132c0-0.99,0.809-1.192,1.797-1.192s1.786,0.202,1.786,1.192
	c0,10.483,8.231,15.578,15.498,20.077c5.862,3.634,11.394,7.064,11.394,12.845v4.786C121.688,71.161,118.538,73.809,112.057,73.809z
	"/>
<path fill="#800093" d="M114.078,83.943c-0.952,0-1.146-0.743-1.19-1.693c-0.056-0.99,0.102-1.839,1.09-1.891
	c10.185-0.54,15.345-5.464,15.345-14.644v-4.932c0-10.15-8.225-15.107-15.48-19.471c-5.867-3.542-11.41-6.878-11.41-12.553v-4.645
	c0-5.332,3.145-7.918,9.624-7.918c6.481,0,9.635,2.587,9.635,7.918v0.719c0,0.991-0.809,1.036-1.797,1.036s-1.785-0.045-1.785-1.036
	v-0.719c0-1.929,0-4.331-6.053-4.331c-6.042,0-6.042,2.402-6.042,4.331v4.645c0,3.645,4.481,6.344,9.677,9.478
	c7.662,4.617,17.203,10.364,17.203,22.546v4.932c0,11.115-6.648,17.587-18.727,18.226C114.135,83.943,114.106,83.943,114.078,83.943
	z"/>
<path fill="#800093" d="M165.284,17.771h-6.975c-0.992,0-1.201,0.202-1.201,1.192v15.42v7.3c0,0.99,0.809,1.196,1.797,1.196
	s1.797-0.206,1.797-1.196v-7.3V21.356h4.582c5.029,0,5.436,2.039,5.436,4.491v17.614c0,2.036-0.652,2.862-1.146,3.307
	c-0.869,0.796-2.313,1.192-4.289,1.192h-1.73c-0.988,0-1.189,0.798-1.189,1.788c0,0.982,0.201,1.777,1.189,1.777h2.291
	c2.629-0.084,4.697-0.788,6.133-2.103c1.541-1.395,2.313-3.399,2.313-5.961V25.848C174.29,20.414,171.348,17.771,165.284,17.771z"/>
<g>
</g>
<g>
</g>
<g>
</g>
<g>
</g>
<g>
</g>
<g>
</g>
</svg>
